<?xml version="1.0" encoding="UTF-8"?>
<!DOCTYPE svg PUBLIC "-//W3C//DTD SVG 1.1//EN" "http://www.w3.org/Graphics/SVG/1.1/DTD/svg11.dtd">
<!-- Creator: CorelDRAW 2021 (64-Bit) -->
<svg xmlns="http://www.w3.org/2000/svg" xml:space="preserve" width="50px" height="50px" version="1.1" shape-rendering="geometricPrecision" text-rendering="geometricPrecision" image-rendering="optimizeQuality" fill-rule="evenodd" clip-rule="evenodd"
viewBox="0 0 157.07 157.38"
 xmlns:xlink="http://www.w3.org/1999/xlink"
 xmlns:xodm="http://www.corel.com/coreldraw/odm/2003">
 <g id="Layer_x0020_1">
  <metadata id="CorelCorpID_0Corel-Layer"/>
  <path fill="#1E3050" d="M96.8 67.06c4.28,-4.39 9.11,-6.25 3.23,-12.68 -4.37,-0.11 -4.89,1.12 -7.08,3.31l-14.42 13.65 -14.8 -14.05c-2.13,-2.12 -2.59,-3.01 -6.7,-2.91 -5.97,6.54 -0.68,8.64 3.63,13.07 3.45,3.56 7.72,7.61 10.57,11.24 -11.57,14.72 -21.74,16.05 -14.2,24.31 4.37,0.11 4.9,-1.12 7.09,-3.31l14.41 -13.64c3.36,2.56 6.77,6.26 10.03,9.37 5.4,5.14 6.24,7.71 11.47,7.58 7.55,-8.25 -2.89,-9.93 -14.2,-24.31 2.94,-3.73 7.42,-8 10.97,-11.63z"/>
  <path fill="#1E3050" d="M9.77 84.99c-3.39,-40.4 26.58,-71.42 62.42,-74.86 39.61,-3.81 71.83,26.25 75.06,62.23 3.65,40.8 -26.95,71.62 -63.09,74.97 -38.88,3.6 -71.41,-26.75 -74.39,-62.34zm-9.77 -5.51c0,42.9 35.71,77.9 78.53,77.9 42.81,0 78.54,-34.98 78.54,-77.9 0,-44.93 -35.57,-79.48 -78.54,-79.48 -43.03,0 -78.53,34.54 -78.53,79.48z"/>
 </g>
</svg>
