<?xml version="1.0" encoding="UTF-8"?>
<!DOCTYPE svg PUBLIC "-//W3C//DTD SVG 1.1//EN" "http://www.w3.org/Graphics/SVG/1.1/DTD/svg11.dtd">
<!-- Creator: CorelDRAW 2021 (64-Bit) -->
<svg xmlns="http://www.w3.org/2000/svg" xml:space="preserve" width="241px" height="211px" version="1.1" shape-rendering="geometricPrecision" text-rendering="geometricPrecision" image-rendering="optimizeQuality" fill-rule="evenodd" clip-rule="evenodd"
viewBox="0 0 30.91 27.08"
 xmlns:xlink="http://www.w3.org/1999/xlink"
 xmlns:xodm="http://www.corel.com/coreldraw/odm/2003">
 <g id="Layer_x0020_1">
  <metadata id="CorelCorpID_0Corel-Layer"/>
  <path fill="#1E3050" d="M7.68 14.47l15.5 0.03 -0.08 10.6 -15.37 -0.04 -0.05 -10.59zm17.41 5.79l3.86 0.03c0.22,3.57 0.28,5.39 -3.88,4.77l0.02 -4.8zm-19.25 4.8c-4.16,0.62 -4.1,-1.2 -3.94,-4.8l3.94 0.03 0 4.77zm19.27 -10.58l3.85 0.02 -0.01 3.89 -3.87 -0.03 0.03 -3.88zm-23.08 0.02l3.8 0.02 0.05 3.87 -3.93 -0.03 0.08 -3.86zm23.06 -5.78l3.87 0.02 -0.01 3.87 -3.88 -0.03 0.02 -3.86zm-17.28 -6.74l15.38 0.04 -0.09 10.56 -15.37 -0.02 0.08 -10.58zm-5.85 6.71l3.88 0.03 0.04 3.89 -3.93 -0.03 0.01 -3.89zm23.11 -6.67c2.02,-0.3 3.9,-0.11 3.9,2.01l0 2.32 -0.02 0.45 -0.47 0.03 -2.94 0 -0.46 -0.03 -0.01 -4.78zm-23.11 4.78c-0.22,-3.58 -0.28,-5.39 3.88,-4.78l-0.02 4.81 -3.86 -0.03zm1.46 -6.68c-1.99,0.33 -3.3,1.75 -3.36,3.9 -0.13,4.09 0,10.09 0,14.4 0,5.9 -0.82,8.61 5.82,8.61 2.93,0 20.33,0.15 21.66,-0.06 1.94,-0.31 3.25,-1.82 3.32,-3.91 0.12,-4.08 0,-10.09 0,-14.4 0,-5.83 0.86,-8.61 -5.83,-8.61 -2.89,0 -20.32,-0.15 -21.61,0.07z"/>
 </g>
</svg>
