<svg xmlns="http://www.w3.org/2000/svg" xml:space="preserve" width="270px" height="240px" version="1.1" shape-rendering="geometricPrecision" text-rendering="geometricPrecision" image-rendering="optimizeQuality" fill-rule="evenodd" clip-rule="evenodd"
viewBox="0 0 788.45 700.31"
 xmlns:xlink="http://www.w3.org/1999/xlink"
 xmlns:xodm="http://www.corel.com/coreldraw/odm/2003">
 <g id="Layer_x0020_1">
  <metadata id="CorelCorpID_0Corel-Layer"/>
  <path fill="#1E3050" d="M327.95 437.2l132.74 0.21 0 218.88 -12.28 0.19 -108.17 0.04 -12.29 -0.27 0 -219.05zm-197.16 -149.09c0,-10.25 6.89,-11.44 13.74,-17.4l250.25 -220.88 167.49 147.82c7.1,7.23 9.89,8.71 17.37,14.8 6.18,5.04 8.78,8.86 14.89,14.28 12.08,10.7 63.33,48.38 63.33,61.38l0 295.26c0,86.18 -79.7,74.5 -154.51,72.88 0,-52.55 0,-105.1 0,-157.65 0,-50.97 11.77,-105.23 -49.46,-105.23 -179.31,0 -168.6,-14.49 -168.6,108.15 0,51.58 0,103.16 0,154.77 -67.71,1.01 -154.5,14.09 -154.5,-69.99l0 -298.19zm-43.52 33.71c6.08,76.95 -14.78,273.73 16.08,325.9 22.08,37.31 57.76,52.73 117.03,52.59l342.04 -0.01c60.42,0.07 98.79,-12.03 121.65,-50.84 32.13,-54.54 9.95,-234.6 17.3,-327.64 16.03,6.9 44.81,44.97 60.54,48.3 17.18,3.63 31.18,-10.35 25.09,-28.21 -2.05,-5.98 -22.55,-24.7 -29.14,-29.97l-119.37 -105.7c-5.36,-4.72 -9.41,-6.92 -14.74,-11.67l-149.1 -131.56c-6.24,-5.55 -8.52,-9.01 -14.98,-14.18 -63.08,-50.44 -53.52,-71.01 -112.25,-16.61l-119.48 105.61c-5.88,4.87 -9.1,9.31 -14.92,14.24 -20.81,17.64 -40.41,35.32 -61.28,52.83 -5.28,4.42 -7.93,8.16 -13.33,12.89l-134.71 119.91c-10.54,17.86 3.07,34.75 20.48,32.86 14.17,-1.53 23.21,-16.02 32.66,-23.76 7.52,-6.18 23.29,-21.91 30.43,-24.98z"/>
 </g>
</svg>
