<?xml version="1.0" encoding="UTF-8"?>
<!DOCTYPE svg PUBLIC "-//W3C//DTD SVG 1.1//EN" "http://www.w3.org/Graphics/SVG/1.1/DTD/svg11.dtd">
<!-- Creator: CorelDRAW 2021 (64-Bit) -->
<svg xmlns="http://www.w3.org/2000/svg" xml:space="preserve" width="210px" height="166px" version="1.1" shape-rendering="geometricPrecision" text-rendering="geometricPrecision" image-rendering="optimizeQuality" fill-rule="evenodd" clip-rule="evenodd"
viewBox="0 0 36.07 28.5"
 xmlns:xlink="http://www.w3.org/1999/xlink"
 xmlns:xodm="http://www.corel.com/coreldraw/odm/2003">
 <g id="Layer_x0020_1">
  <metadata id="CorelCorpID_0Corel-Layer"/>
  <g id="_2606771131360">
   <path fill="#1E3050" d="M0.94 0.22c-1.19,0.36 -1.53,2.39 0.7,2.48 3.66,0.14 10.53,-0.01 14.43,-0.01 2.78,0 17.7,0.34 19.15,-0.09 1.04,-0.3 1.48,-2.39 -0.77,-2.48 -3.66,-0.15 -10.53,0 -14.43,0 -2.82,0 -17.63,-0.33 -19.08,0.1z"/>
   <path fill="#1E3050" d="M0.94 13.1c-0.69,0.2 -1.04,0.63 -0.83,1.58 0.32,1.44 3.79,0.89 6.34,0.89 4.54,0 27.62,0.25 28.77,-0.09 1.04,-0.3 1.48,-2.4 -0.77,-2.49 -3.66,-0.14 -10.53,0.01 -14.43,0.01 -2.82,0 -17.63,-0.33 -19.08,0.1z"/>
   <path fill="#1E3050" d="M0.13 27.59c0.3,1.24 2.56,0.86 3.92,0.86l28.85 0c1.5,0 3.51,0.31 3.08,-1.68 -0.28,-1.29 -2.57,-0.9 -3.94,-0.9l-28.85 0c-1.52,0 -3.56,-0.3 -3.06,1.72z"/>
  </g>
 </g>
</svg>
