<?xml version="1.0" encoding="UTF-8"?>
<!DOCTYPE svg PUBLIC "-//W3C//DTD SVG 1.1//EN" "http://www.w3.org/Graphics/SVG/1.1/DTD/svg11.dtd">
<!-- Creator: CorelDRAW 2021 (64-Bit) -->
<svg xmlns="http://www.w3.org/2000/svg" xml:space="preserve" width="240px" height="239px" version="1.1" shape-rendering="geometricPrecision" text-rendering="geometricPrecision" image-rendering="optimizeQuality" fill-rule="evenodd" clip-rule="evenodd"
viewBox="0 0 56.54 56.31"
 xmlns:xlink="http://www.w3.org/1999/xlink"
 xmlns:xodm="http://www.corel.com/coreldraw/odm/2003">
 <g id="Layer_x0020_1">
  <metadata id="CorelCorpID_0Corel-Layer"/>
  <path fill="#1E3050" d="M3.58 48.59c-1.26,-4.83 6.15,-8.09 11.07,-5.41 5.25,2.87 3.02,8.98 -3.07,9.6 -1.85,0.19 -3.78,-0.15 -5.16,-0.9 -0.95,-0.53 -2.51,-2.02 -2.84,-3.29zm40.6 -13.24c3.79,-0.76 7.16,0.94 8.38,3.37 1.78,3.53 -2.06,6.33 -4.84,6.87 -6.12,1.2 -11.55,-3.88 -7.64,-8.08 1.14,-1.23 1.93,-1.73 4.1,-2.16zm8.78 -31.62l0.01 9.74c-1.69,0.84 -5.82,1.87 -7.99,2.55 -3.03,0.94 -22.49,7.11 -23.88,7.27l-0.02 -9.78 31.88 -9.78zm0.01 13.62l0 16.37c-1.12,-0.28 -2.28,-1.27 -4.09,-1.68 -1.87,-0.43 -3.36,-0.49 -5.24,-0.16 -8.15,1.42 -10.19,9.12 -6.53,13.57 3.92,4.76 12.22,5.04 16.59,0.96 2.6,-2.41 2.73,-4.58 2.73,-9.13 0,-7.77 0,-15.54 0,-23.32 0,-14.83 1.64,-15.53 -7.92,-12.55l-26.83 8.27c-1.48,0.46 -3.51,0.74 -3.91,2 -0.33,1.04 -0.13,26.67 -0.13,29.1 -1.05,-0.26 -2.24,-1.23 -3.9,-1.63 -9.12,-2.22 -16.43,5.07 -12.78,12.07 4.02,7.74 18.57,6.43 20.01,-2.43 0.39,-2.4 0.08,-17.76 0.13,-21.82l31.87 -9.62z"/>
 </g>
</svg>
