<?xml version="1.0" encoding="UTF-8"?>
<!DOCTYPE svg PUBLIC "-//W3C//DTD SVG 1.1//EN" "http://www.w3.org/Graphics/SVG/1.1/DTD/svg11.dtd">
<!-- Creator: CorelDRAW 2021 (64-Bit) -->
<svg xmlns="http://www.w3.org/2000/svg" xml:space="preserve" width="253px" height="253px" version="1.1" shape-rendering="geometricPrecision" text-rendering="geometricPrecision" image-rendering="optimizeQuality" fill-rule="evenodd" clip-rule="evenodd"
viewBox="0 0 122.1 122.19"
 xmlns:xlink="http://www.w3.org/1999/xlink"
 xmlns:xodm="http://www.corel.com/coreldraw/odm/2003">
 <g id="Layer_x0020_1">
  <metadata id="CorelCorpID_0Corel-Layer"/>
  <path fill="none" stroke="#1D3050" stroke-width="6.75" stroke-miterlimit="22.9256" d="M23.32 86.79c12.19,0 10.98,-1.02 20.89,-10.94 10.55,-10.55 14.43,-17.84 24.9,-7.35l13.98 13.99c5.09,5.08 7.54,4.3 15.47,4.3 3.86,0 6.85,-4.97 9.33,-7.55 1.03,-1.08 1.86,-1.81 2.93,-2.85 3.68,-3.54 7.9,-7.08 7.9,-15.16 0,-9.26 -5.59,-12.72 -10.59,-17.76 -8.14,-8.21 -4.41,-7.8 -15.36,-7.8 -7.25,0 -10.43,5.05 -16.43,11.06 -9.92,9.91 -14.41,17.7 -24.62,7.33l-13.82 -14.16c-4.76,-4.77 -7.72,-4.23 -14.58,-4.23 -2.64,0 -4.81,3.34 -6.28,4.81 -6.45,6.45 -13.66,11.62 -13.66,20.75 0,9.1 7.07,14.17 13.42,20.51 1.5,1.51 3.85,5.05 6.52,5.05z"/>
  <path fill="none" stroke="#1D3050" stroke-width="6.75" stroke-miterlimit="22.9256" d="M27.05 30.37c12.21,0.27 16.69,7.65 25.65,16.92 9.21,9.51 6.35,9.05 22.94,-7.54 9.16,-9.16 8.15,-8.15 19.44,-9.5 -4.88,-5.11 -9.98,-10 -15.07,-15.09 -4.04,-4.04 -9.46,-11.64 -18.59,-11.78 -9.24,-0.15 -14.84,7.5 -18.89,11.47 -3.2,3.15 -13.71,12.66 -15.48,15.52z"/>
  <path fill="none" stroke="#1D3050" stroke-width="6.75" stroke-miterlimit="22.9256" d="M26.87 91.83c5.1,4.62 10.23,10.22 15.25,15.24 4.1,4.1 9.41,11.64 18.82,11.74 9.71,0.12 14.89,-7.32 19.07,-11.5 5.09,-5.1 10.19,-9.98 15.07,-15.09 -5.22,-0.63 -7.42,-0.06 -11.78,-2.71 -3.18,-1.94 -5.25,-4.38 -7.66,-6.8 -18.09,-18.08 -12.13,-18.48 -30,-0.61 -5.59,5.59 -7.13,8.99 -18.77,9.73z"/>
 </g>
</svg>
