<?xml version="1.0" encoding="UTF-8"?>
<!DOCTYPE svg PUBLIC "-//W3C//DTD SVG 1.1//EN" "http://www.w3.org/Graphics/SVG/1.1/DTD/svg11.dtd">
<!-- Creator: CorelDRAW 2021 (64-Bit) -->
<svg xmlns="http://www.w3.org/2000/svg" xml:space="preserve" width="240px" height="239px" version="1.1" shape-rendering="geometricPrecision" text-rendering="geometricPrecision" image-rendering="optimizeQuality" fill-rule="evenodd" clip-rule="evenodd"
viewBox="0 0 65.62 65.53"
 xmlns:xlink="http://www.w3.org/1999/xlink"
 xmlns:xodm="http://www.corel.com/coreldraw/odm/2003">
 <g id="Layer_x0020_1">
  <metadata id="CorelCorpID_0Corel-Layer"/>
  <path fill="#1E3050" d="M32.87 49.26c6.98,-1.03 16.69,3.99 10.06,9.86 -2.92,2.58 -9.57,2.92 -13.47,1.45 -7.87,-2.95 -5.85,-9.94 3.41,-11.31zm16.33 -40.6c1.08,-0.54 11.37,-4.02 12.4,-4.04l0 11.1c-1.41,0.69 -10.77,3.74 -12.39,3.99l-0.01 -11.05zm0.03 15.57c1.04,-0.71 7.25,-2.49 8.89,-3.02 5.67,-1.82 7.5,-1.63 7.5,-4.64l0 -13.14c0,-3.39 -2.1,-3.99 -5,-3 -17.89,6.08 -15.45,3.37 -15.45,11.76 0,11.93 0.03,23.86 0,35.79 -1.72,-0.42 -5.11,-3.43 -11.65,-2.86 -17.19,1.51 -16.61,18.12 -1.65,20.18 8.38,1.15 17.37,-1.86 17.33,-11.78 -0.03,-9.5 -0.37,-19.87 0.03,-29.29z"/>
  <path fill="#1E3050" d="M1.45 8.25c-0.9,0.27 -1.13,0.36 -1.33,1.27 -0.74,3.31 3.05,2.67 4.91,2.67 5.03,-0.01 29.03,0.3 30.53,-0.14 1.33,-0.39 1.74,-2.25 0.86,-3.32 -0.79,-0.95 -3.1,-0.65 -4.56,-0.64 -5.05,0 -28.87,-0.3 -30.41,0.16z"/>
  <path fill="#1E3050" d="M1.45 24.67c-2.22,0.66 -1.27,2.94 -0.98,3.3 0.79,0.94 3.1,0.65 4.56,0.64 5.03,0 29.03,0.3 30.53,-0.14 1.33,-0.39 1.74,-2.25 0.86,-3.31 -0.79,-0.95 -3.1,-0.65 -4.56,-0.65 -5.05,0.01 -28.87,-0.3 -30.41,0.16z"/>
  <path fill="#1E3050" d="M1.45 41.1c-2.02,0.6 -1.74,3.17 -0.33,3.73 0.9,0.35 4.55,0.21 5.83,0.21 2.09,0 10.83,0.25 12.19,-0.15 1.74,-0.51 1.69,-3.17 0.2,-3.75 -1.03,-0.4 -16.99,-0.31 -17.89,-0.04z"/>
 </g>
</svg>
