<?xml version="1.0" encoding="UTF-8"?>
<!DOCTYPE svg PUBLIC "-//W3C//DTD SVG 1.1//EN" "http://www.w3.org/Graphics/SVG/1.1/DTD/svg11.dtd">
<!-- Creator: CorelDRAW 2021 (64-Bit) -->
<svg xmlns="http://www.w3.org/2000/svg" xml:space="preserve" width="270px" height="181px" version="1.1" shape-rendering="geometricPrecision" text-rendering="geometricPrecision" image-rendering="optimizeQuality" fill-rule="evenodd" clip-rule="evenodd"
viewBox="0 0 78.53 52.55"
 xmlns:xlink="http://www.w3.org/1999/xlink"
 xmlns:xodm="http://www.corel.com/coreldraw/odm/2003">
 <g id="Layer_x0020_1">
  <metadata id="CorelCorpID_0Corel-Layer"/>
  <path fill="#1E3050" d="M7.37 4.76c1.65,-0.6 27.35,-0.28 32.69,-0.28 3.51,0 6.89,-0.31 7.84,2.9 0.51,1.71 0.2,27.17 0.2,32.56 0,3.46 0.32,6.86 -2.76,7.89 -1.67,0.55 -27.52,0.25 -32.89,0.25 -3.51,0 -6.88,0.31 -7.84,-2.9 -0.51,-1.72 -0.19,-27.18 -0.2,-32.56 0,-1.4 -0.14,-4.09 0.2,-5.24 0.45,-1.52 1.42,-2.13 2.76,-2.62zm-7.2 39.54c1.05,9.85 11.28,8.13 18.09,8.13 4.44,0 23.37,0.23 26.11,-0.07 9.86,-1.06 8,-11.68 8,-18.24 0,-4.66 0.24,-22.76 -0.05,-25.85 -0.91,-9.9 -11.56,-8.15 -18.07,-8.15 -4.44,0 -23.37,-0.23 -26.11,0.07 -9.86,1.07 -8,11.67 -8,18.24l0.03 25.87z"/>
  <path fill="#1E3050" d="M56.82 17.63c1.6,-0.58 3.19,-1.64 4.71,-2.43l9.01 -4.95c1.65,-0.87 3.71,-2.8 3.71,0.33l0 31.39c0,3.19 -2.15,1.15 -3.71,0.33 -2.57,-1.35 -11.89,-6.71 -13.72,-7.38l0 4.83c1.77,0.64 4.1,2.15 5.89,3.12 1.86,1.01 3.65,2.04 5.6,3.12 1.87,1.03 3.99,2.66 6.65,1.83 2.17,-0.69 3.57,-2.35 3.57,-5.27l0 -32.55c0,-2.94 -1.47,-4.72 -3.79,-5.33 -4.01,-1.05 -12.83,6.3 -17.92,8.14l0 4.82z"/>
 </g>
</svg>
