<?xml version="1.0" encoding="UTF-8"?>
<!DOCTYPE svg PUBLIC "-//W3C//DTD SVG 1.1//EN" "http://www.w3.org/Graphics/SVG/1.1/DTD/svg11.dtd">
<!-- Creator: CorelDRAW 2021 (64-Bit) -->
<svg xmlns="http://www.w3.org/2000/svg" xml:space="preserve" width="174px" height="175px" version="1.1" shape-rendering="geometricPrecision" text-rendering="geometricPrecision" image-rendering="optimizeQuality" fill-rule="evenodd" clip-rule="evenodd"
viewBox="0 0 33.2 33.23"
 xmlns:xlink="http://www.w3.org/1999/xlink"
 xmlns:xodm="http://www.corel.com/coreldraw/odm/2003">
 <g id="Layer_x0020_1">
  <metadata id="CorelCorpID_0Corel-Layer"/>
  <g id="_2572040695248">
   <path fill="white" d="M3.89 29.36c0.49,-2.98 1.8,-4.33 0.88,-5.83 -3.35,-5.48 -2.29,-11.65 1.57,-16.12 8.72,-10.09 24.88,-2.15 24.14,9.65 -0.23,3.63 -2.02,7.57 -4.61,9.68 -5.11,4.16 -10.12,4.69 -16.26,1.64 -1.2,-0.59 -4.14,0.7 -5.72,0.98zm-3.89 3.87c1.69,-0.19 5.17,-1.28 6.98,-1.78 3.26,-0.92 1.69,0.48 6.8,1.34 9.42,1.58 18.52,-5.08 19.36,-15.15 0.59,-6.92 -3.92,-13.59 -10.04,-16.25 -13.34,-5.8 -27.49,7.57 -21.75,21.56 0.72,1.76 1.09,1.27 0.49,3.37 -0.63,2.22 -1.37,4.69 -1.84,6.91z"/>
   <path fill="white" d="M24.9 20.49c-0.81,-0.58 -2.97,-1.7 -4.14,-1.91 -0.85,0.57 -0.91,1.38 -2.1,2.13 -2.57,-0.58 -5.39,-3.29 -6.23,-5.37 0.4,-1.14 1.71,-1.35 1.09,-3.01 -0.45,-1.2 -1.04,-2.35 -1.43,-3.34 -2.05,-0.09 -2.69,0.24 -3.4,1.72 -1.58,3.29 0.98,6.2 2.85,8.53 4.34,5.4 13.5,7.71 13.36,1.25z"/>
  </g>
 </g>
</svg>
